<?xml version="1.0" standalone="no"?>
<!DOCTYPE svg PUBLIC "-//W3C//DTD SVG 20010904//EN"
 "http://www.w3.org/TR/2001/REC-SVG-20010904/DTD/svg10.dtd">
<svg version="1.0" xmlns="http://www.w3.org/2000/svg"
 width="500.000000pt" height="500.000000pt" viewBox="0 0 500.000000 500.000000"
 preserveAspectRatio="xMidYMid meet">
<metadata>
Created by potrace 1.14, written by Peter Selinger 2001-2017
</metadata>
<g transform="translate(0.000000,500.000000) scale(0.100000,-0.100000)"
fill="#000000" stroke="none">
<path d="M2315 4989 c-195 -18 -417 -77 -605 -159 -538 -235 -969 -740 -1114
-1306 -61 -233 -59 -203 -63 -959 -3 -473 -1 -731 7 -795 54 -470 262 -888
602 -1215 298 -288 625 -452 1048 -526 175 -31 443 -31 615 -1 230 41 384 91
575 187 501 252 887 731 1024 1270 61 244 61 236 61 1010 0 636 -2 721 -18
816 -112 665 -511 1205 -1098 1489 -331 159 -677 222 -1034 189z m432 -64
c724 -94 1332 -601 1567 -1308 92 -275 106 -420 106 -1117 0 -699 -14 -842
-106 -1120 -166 -497 -522 -904 -989 -1130 -263 -128 -534 -190 -827 -190
-647 0 -1236 322 -1601 875 -165 251 -275 568 -307 884 -13 135 -13 1227 0
1362 39 390 191 763 429 1053 68 82 211 224 291 289 207 168 505 312 767 372
197 45 463 57 670 30z"/>
<path d="M2185 4830 c-60 -11 -135 -27 -165 -36 -628 -177 -1127 -682 -1289
-1306 -57 -221 -56 -196 -56 -988 0 -728 0 -736 23 -849 222 -1095 1302 -1744
2354 -1416 633 198 1113 742 1250 1416 23 113 23 121 23 849 0 792 1 767 -56
988 -49 188 -134 376 -249 551 -257 392 -691 685 -1155 782 -151 32 -526 36
-680 9z m505 -15 c753 -80 1378 -632 1564 -1380 42 -170 48 -256 53 -790 7
-758 -7 -939 -94 -1210 -129 -402 -415 -769 -766 -984 -301 -184 -604 -271
-947 -271 -341 0 -640 85 -938 266 -398 242 -692 646 -813 1116 -46 182 -51
248 -56 798 -6 579 4 844 37 1004 162 778 800 1367 1570 1451 156 17 232 17
390 0z"/>
<path d="M2610 4694 c0 -20 -60 -352 -70 -383 -5 -19 -9 -36 -7 -37 1 -1 26
-7 56 -13 40 -9 56 -9 61 0 4 6 13 50 20 98 20 142 22 141 69 -5 l41 -131 71
-12 c40 -6 73 -10 74 -9 1 2 7 39 13 83 7 44 25 140 41 213 16 73 26 134 22
136 -3 2 -31 7 -62 10 l-56 7 -18 -110 c-10 -61 -21 -111 -25 -111 -4 0 -11
12 -15 28 -3 15 -20 70 -36 124 -33 105 -28 101 -126 114 -29 3 -53 3 -53 -2z"/>
<path d="M2190 4673 c-41 -8 -76 -16 -78 -18 -6 -5 -52 -448 -48 -452 2 -3 31
1 65 8 l61 12 0 38 c0 38 0 38 55 49 63 13 71 10 80 -30 4 -17 10 -30 14 -30
10 0 125 22 129 25 3 2 -196 415 -200 414 -2 -1 -37 -8 -78 -16z m54 -192 c14
-35 25 -65 23 -66 -1 -1 -17 -5 -34 -8 l-33 -6 0 58 c0 53 8 97 15 89 2 -2 15
-32 29 -67z"/>
<path d="M1723 4517 c-29 -17 -53 -35 -53 -40 0 -4 19 -37 41 -73 46 -73 48
-68 -32 -113 l-37 -21 -41 70 c-23 39 -44 70 -46 70 -3 0 -29 -16 -60 -35
l-55 -35 37 -58 c20 -31 57 -88 83 -127 26 -38 56 -88 68 -110 42 -82 41 -81
100 -45 29 17 52 36 52 41 0 6 -19 37 -41 71 -33 48 -39 62 -28 70 56 37 100
59 109 53 6 -4 24 -33 40 -66 17 -32 34 -59 38 -59 6 0 98 54 110 65 2 1 -23
43 -55 92 -32 50 -83 133 -113 186 -30 53 -57 97 -60 97 -3 -1 -29 -15 -57
-33z"/>
<path d="M3190 4438 c-30 -51 -82 -134 -116 -185 l-62 -92 84 -56 c134 -90
201 -102 290 -50 46 27 86 75 114 137 34 74 21 145 -35 200 -27 27 -198 138
-213 138 -4 0 -32 -42 -62 -92z m158 -88 c46 -28 44 -69 -8 -148 -47 -73 -73
-84 -125 -52 -19 12 -35 24 -35 27 0 8 124 192 130 193 3 0 20 -9 38 -20z"/>
<path d="M2245 4105 c-487 -113 -843 -509 -905 -1005 -8 -67 -10 -261 -7 -660
4 -609 4 -603 62 -776 130 -389 466 -684 875 -770 117 -25 344 -25 460 0 361
77 652 306 816 640 30 61 66 156 81 211 l28 100 0 655 0 655 -27 98 c-122 442
-455 762 -892 856 -138 30 -353 28 -491 -4z m430 -41 c412 -71 755 -369 879
-763 54 -171 57 -224 53 -846 -4 -637 -3 -629 -78 -820 -111 -285 -342 -520
-619 -628 -157 -62 -216 -72 -415 -72 -166 0 -188 2 -280 28 -388 108 -676
398 -792 798 l-27 94 -4 611 c-3 584 -2 615 18 712 70 345 297 639 607 787
215 103 440 137 658 99z"/>
<path d="M2285 3974 c-420 -93 -737 -423 -810 -843 -22 -123 -22 -1140 0
-1264 47 -270 211 -525 437 -678 85 -58 228 -123 328 -151 75 -20 107 -23 265
-22 166 0 187 3 269 28 300 91 525 280 656 551 98 201 94 162 98 877 3 600 2
631 -17 712 -31 128 -74 231 -142 336 -134 208 -342 363 -585 436 -79 24 -109
27 -259 30 -127 3 -188 0 -240 -12z m466 -47 c225 -59 444 -210 566 -392 75
-112 153 -287 153 -345 0 -13 -35 -24 -172 -53 -251 -53 -325 -78 -418 -142
l-80 -54 0 73 c0 58 5 83 25 122 14 27 25 52 25 57 0 4 -78 7 -174 7 l-174 0
-34 39 c-18 21 -46 65 -63 97 -81 157 -208 231 -507 295 -60 12 -108 26 -108
30 0 16 113 105 195 155 97 59 223 108 334 129 114 22 310 13 432 -18z m-731
-363 c177 -46 285 -115 335 -214 13 -25 39 -69 58 -97 l36 -53 -56 0 c-52 0
-59 3 -104 45 -55 52 -79 56 -116 19 -23 -23 -25 -31 -20 -78 3 -32 27 -105
61 -183 86 -203 125 -365 92 -392 -22 -18 -42 -8 -50 26 -29 120 -166 433
-190 433 -23 0 -21 -6 28 -111 73 -156 137 -346 134 -393 -2 -33 -7 -42 -25
-44 -30 -4 -42 22 -129 282 -40 121 -78 224 -83 229 -31 31 -15 -45 48 -235
39 -117 71 -217 71 -221 0 -42 -94 138 -132 253 -25 73 -30 94 -43 173 -4 25
-11 37 -22 37 -29 0 -9 -112 51 -285 5 -13 2 -12 -8 5 -24 39 -64 176 -106
362 -22 98 -45 177 -54 186 -20 20 -124 28 -186 13 -24 -5 -46 -8 -48 -6 -5 5
74 162 101 200 12 17 36 49 54 71 l34 42 87 -20 c48 -10 130 -30 182 -44z
m-247 -284 c4 -4 17 -49 28 -100 69 -333 124 -485 185 -512 14 -7 35 -30 46
-52 11 -23 26 -48 34 -57 12 -13 0 -48 -85 -250 -126 -299 -136 -345 -106
-464 23 -90 72 -178 138 -250 l59 -65 428 0 428 0 55 61 c130 143 177 305 135
466 -13 52 3 98 36 107 54 13 105 145 172 436 20 91 41 171 47 178 6 7 33 12
68 12 l59 0 0 -404 c0 -236 -5 -437 -11 -482 -45 -323 -257 -615 -555 -760
-227 -111 -491 -132 -728 -57 -165 51 -290 127 -413 249 -128 127 -217 281
-265 455 -23 83 -23 88 -23 704 0 563 2 627 18 697 l18 77 52 10 c97 20 159
20 180 1z m487 -55 l23 -25 -46 0 c-39 0 -47 3 -47 18 0 40 36 43 70 7z m530
-58 c0 -2 -7 -25 -16 -52 -13 -36 -15 -68 -11 -137 6 -87 5 -89 -29 -150 -20
-34 -60 -91 -90 -126 -57 -68 -65 -90 -36 -114 45 -40 96 -28 175 42 l47 42
32 -68 c17 -38 31 -74 31 -79 0 -6 -38 -69 -86 -140 -91 -138 -118 -205 -102
-251 26 -71 71 -55 157 55 34 44 63 79 64 78 1 -1 -6 -38 -17 -82 -30 -127
-23 -185 27 -207 24 -11 29 -9 53 17 24 27 89 60 98 51 12 -11 14 -141 3 -187
-18 -76 -75 -182 -133 -245 l-49 -54 -408 0 -408 0 -50 55 c-49 54 -112 151
-112 174 0 7 94 11 323 13 278 3 322 5 322 18 0 13 -45 15 -331 18 l-332 2 -6
31 c-8 40 -8 108 0 148 l7 31 174 0 c135 0 174 3 171 13 -4 9 -48 13 -166 15
-89 1 -162 6 -162 11 0 5 11 34 25 65 l25 56 286 2 c217 2 288 6 291 15 4 10
-60 13 -281 15 l-285 3 19 43 19 42 170 0 c177 0 201 3 201 26 0 11 -32 14
-176 14 l-175 0 7 23 c3 12 20 51 36 86 l29 65 29 -32 c16 -18 38 -32 50 -32
26 0 70 43 70 67 0 12 8 19 22 20 12 1 30 11 41 21 31 31 23 135 -18 251 -8
24 -15 45 -15 47 0 2 69 4 154 4 116 0 156 3 165 13 6 8 8 17 4 20 -3 4 -81 7
-173 7 l-167 0 -16 40 -15 39 131 3 c93 2 132 7 135 16 3 9 -29 12 -138 12
l-141 0 -18 43 c-11 23 -22 52 -26 65 l-6 22 300 0 c166 0 301 -1 301 -3z
m702 -83 c3 -27 7 -98 7 -158 l1 -108 -35 6 c-47 9 -112 -10 -129 -37 -7 -12
-19 -51 -26 -87 -30 -163 -114 -460 -126 -447 -2 2 5 30 17 63 29 83 51 206
40 217 -17 17 -29 -2 -36 -56 -4 -28 -19 -88 -32 -132 -29 -93 -118 -275 -134
-275 -7 0 -8 7 -4 18 27 66 142 428 139 434 -17 26 -36 -14 -98 -200 -98 -296
-105 -314 -124 -310 -28 5 -27 87 2 199 29 113 41 140 96 224 38 59 50 95 30
95 -6 0 -30 -31 -54 -68 -79 -124 -262 -346 -277 -337 -15 10 -10 73 7 108 9
18 56 91 104 163 48 73 97 157 109 188 36 96 29 169 -15 187 -37 14 -78 -8
-173 -95 -64 -58 -90 -76 -112 -76 -49 0 -46 25 10 86 29 31 70 90 93 131 83
152 177 207 460 269 68 14 148 32 178 39 30 7 60 12 65 11 6 -2 13 -25 17 -52z
m-538 -360 c3 -9 6 -24 6 -34 0 -24 -31 -120 -39 -120 -4 0 -19 28 -34 63
l-28 62 26 23 c30 26 60 29 69 6z"/>
<path d="M2902 1414 c-24 -17 -29 -43 -10 -62 9 -9 9 -12 -1 -12 -8 0 -11 -10
-9 -27 2 -24 8 -29 36 -31 18 -2 40 2 48 9 17 14 19 59 2 59 -9 0 -9 3 0 12
18 18 14 46 -7 58 -26 13 -33 13 -59 -6z m38 -34 c0 -5 -4 -10 -10 -10 -5 0
-10 5 -10 10 0 6 5 10 10 10 6 0 10 -4 10 -10z m0 -60 c0 -5 -4 -10 -10 -10
-5 0 -10 5 -10 10 0 6 5 10 10 10 6 0 10 -4 10 -10z"/>
<path d="M2020 1345 l0 -65 50 0 c43 0 50 3 50 20 0 11 -4 20 -9 20 -5 0 -7 9
-4 19 4 14 -1 21 -19 24 -21 4 -20 4 5 6 20 1 27 6 27 21 0 17 -7 20 -50 20
l-50 0 0 -65z m70 -25 c0 -5 -4 -10 -10 -10 -5 0 -10 5 -10 10 0 6 5 10 10 10
6 0 10 -4 10 -10z"/>
<path d="M2172 1394 c-29 -20 -28 -38 5 -64 l28 -22 -28 7 c-23 6 -27 4 -27
-14 0 -18 6 -21 39 -21 63 0 83 50 31 78 -22 12 -22 13 -3 9 15 -3 23 1 26 14
8 30 -35 39 -71 13z"/>
<path d="M2280 1390 c0 -11 7 -20 15 -20 11 0 15 -12 15 -45 0 -38 3 -45 20
-45 17 0 20 7 20 45 0 33 4 45 15 45 8 0 15 9 15 20 0 17 -7 20 -50 20 -43 0
-50 -3 -50 -20z"/>
<path d="M2513 1399 c-23 -7 -33 -16 -33 -29 0 -11 5 -20 10 -20 6 0 10 -16
10 -35 0 -31 3 -35 25 -35 24 0 25 2 25 65 0 36 -1 65 -2 64 -2 0 -18 -5 -35
-10z"/>
<path d="M2610 1390 c-27 -27 -25 -44 6 -69 22 -17 24 -22 10 -27 -20 -8 -21
-23 0 -31 9 -3 27 6 45 23 51 49 36 124 -25 124 -9 0 -25 -9 -36 -20z m50 -25
c0 -8 -4 -15 -10 -15 -5 0 -10 7 -10 15 0 8 5 15 10 15 6 0 10 -7 10 -15z"/>
<path d="M2750 1390 c-27 -27 -25 -44 6 -69 22 -17 24 -22 10 -27 -20 -8 -21
-23 0 -31 9 -3 27 6 45 23 51 49 36 124 -25 124 -9 0 -25 -9 -36 -20z m50 -25
c0 -8 -4 -15 -10 -15 -5 0 -10 7 -10 15 0 8 5 15 10 15 6 0 10 -7 10 -15z"/>
<path d="M2423 1323 c-21 -8 -15 -43 6 -43 11 0 23 5 27 11 8 14 -17 38 -33
32z"/>
<path d="M974 3091 c-14 -22 -28 -58 -31 -79 -5 -36 -1 -45 33 -86 33 -40 39
-44 47 -28 6 9 21 29 35 44 21 23 24 34 19 68 -5 42 -49 120 -67 120 -5 0 -21
-18 -36 -39z"/>
<path d="M3957 3100 c-22 -26 -47 -85 -47 -112 0 -4 16 -29 37 -56 l36 -49 34
43 c20 28 33 56 33 74 0 39 -21 90 -47 113 -20 17 -21 17 -46 -13z"/>
<path d="M794 2930 c10 -63 26 -90 53 -90 31 0 80 -25 116 -58 l27 -26 0 43
c0 47 -17 85 -52 118 -29 28 -89 53 -124 53 -25 0 -26 -2 -20 -40z"/>
<path d="M1135 2951 c-69 -32 -105 -86 -105 -159 l0 -36 28 26 c35 33 85 58
115 58 20 0 28 9 41 40 9 22 16 52 16 65 0 21 -5 25 -27 25 -16 0 -46 -9 -68
-19z"/>
<path d="M3770 2929 c0 -51 22 -89 51 -89 33 0 83 -26 118 -61 l34 -34 -6 54
c-11 95 -65 152 -156 167 l-41 7 0 -44z"/>
<path d="M4105 2951 c-22 -10 -48 -27 -57 -37 -26 -30 -48 -89 -48 -130 l0
-37 20 26 c23 29 96 67 128 67 27 0 52 46 52 95 0 32 -3 35 -27 35 -16 0 -46
-9 -68 -19z"/>
<path d="M794 2771 c11 -70 23 -91 51 -91 32 0 81 -24 118 -58 l27 -26 0 43
c0 92 -82 171 -179 171 -22 0 -23 -3 -17 -39z"/>
<path d="M1135 2794 c-68 -35 -105 -91 -105 -161 l0 -37 28 26 c36 34 85 58
117 58 28 0 43 26 52 93 6 36 5 37 -28 37 -19 0 -47 -7 -64 -16z"/>
<path d="M3770 2770 c0 -55 18 -90 47 -90 37 0 85 -24 122 -61 l34 -34 -6 54
c-4 32 -16 69 -31 91 -27 41 -95 80 -139 80 -25 0 -27 -3 -27 -40z"/>
<path d="M4105 2791 c-22 -10 -48 -27 -57 -37 -26 -30 -48 -89 -48 -130 l0
-37 20 26 c23 29 96 67 128 67 27 0 52 46 52 95 0 32 -3 35 -27 35 -16 0 -46
-9 -68 -19z"/>
<path d="M795 2603 c9 -62 21 -83 46 -83 31 0 91 -28 122 -57 l27 -27 0 43 c0
23 -6 54 -14 69 -30 58 -101 102 -164 102 -23 0 -24 -2 -17 -47z"/>
<path d="M1135 2631 c-69 -32 -105 -86 -105 -159 l0 -36 28 27 c30 29 90 57
121 57 25 0 39 26 47 85 7 44 6 45 -22 45 -16 0 -47 -9 -69 -19z"/>
<path d="M3770 2612 c0 -58 18 -92 47 -92 32 0 81 -25 122 -64 l33 -31 -4 45
c-11 98 -71 166 -157 177 l-41 6 0 -41z"/>
<path d="M4105 2631 c-22 -10 -48 -27 -57 -37 -26 -30 -48 -89 -48 -130 l0
-37 20 26 c23 29 96 67 128 67 27 0 52 46 52 95 0 32 -3 35 -27 35 -16 0 -46
-9 -68 -19z"/>
<path d="M792 2445 c10 -84 84 -155 162 -155 33 0 36 2 36 30 0 88 -86 170
-178 170 -23 0 -24 -2 -20 -45z"/>
<path d="M1135 2471 c-67 -31 -105 -86 -105 -152 0 -27 3 -29 36 -29 78 0 152
71 162 155 5 44 4 45 -24 45 -16 0 -47 -9 -69 -19z"/>
<path d="M3770 2446 c0 -51 29 -99 79 -133 42 -28 121 -33 121 -7 0 70 -63
155 -128 173 -66 19 -72 16 -72 -33z"/>
<path d="M4105 2471 c-22 -10 -48 -27 -57 -37 -23 -26 -48 -88 -48 -119 0 -22
4 -25 35 -25 86 0 154 63 163 150 4 50 4 50 -24 50 -16 0 -47 -9 -69 -19z"/>
<path d="M3143 959 c-68 -39 -123 -75 -123 -79 0 -5 32 -62 71 -126 38 -64 83
-143 100 -176 16 -32 33 -57 37 -55 210 120 242 141 242 155 0 10 -9 31 -20
49 l-19 32 -73 -45 -73 -44 -17 22 c-21 28 -18 33 44 64 45 23 49 28 43 52 -3
15 -13 37 -21 49 l-14 22 -58 -34 c-52 -32 -58 -34 -69 -18 -22 29 -15 38 57
77 39 20 70 39 70 42 0 17 -35 84 -44 84 -6 0 -66 -32 -133 -71z"/>
<path d="M1646 831 c-58 -93 -106 -173 -106 -178 0 -5 20 -19 45 -31 l44 -21
37 67 c54 96 84 140 84 120 0 -9 -7 -52 -15 -95 -8 -43 -15 -81 -15 -85 0 -4
19 -17 41 -29 l41 -21 32 29 c17 15 53 48 79 73 l48 45 -20 -53 c-12 -29 -29
-70 -40 -90 -37 -75 -37 -79 13 -104 28 -13 49 -18 54 -12 10 10 152 358 152
371 0 5 -29 23 -64 40 l-65 32 -27 -32 c-59 -71 -115 -130 -119 -126 -3 4 27
146 41 191 4 13 -9 25 -55 48 -33 16 -65 30 -70 30 -5 0 -57 -76 -115 -169z"/>
<path d="M2715 804 c-60 -14 -111 -27 -112 -27 0 -1 16 -76 37 -167 21 -91 41
-182 45 -202 7 -44 9 -45 121 -22 120 25 161 50 196 118 28 55 22 173 -12 234
-50 88 -114 103 -275 66z m153 -134 c31 -61 31 -143 0 -164 -20 -14 -78 -23
-78 -12 0 3 -6 35 -14 73 -28 138 -28 141 -9 146 10 3 32 4 48 4 25 -2 34 -10
53 -47z"/>
<path d="M2283 783 c-4 -10 -42 -99 -84 -198 -54 -125 -74 -182 -66 -187 7 -3
34 -8 62 -9 48 -3 50 -2 59 29 8 28 13 32 45 32 66 0 81 -9 81 -45 0 -37 15
-45 88 -45 30 0 42 4 42 15 0 32 -62 400 -68 406 -4 4 -40 10 -80 13 -64 6
-73 5 -79 -11z m82 -175 l7 -68 -36 0 c-20 0 -36 2 -36 5 0 9 52 136 55 133 1
-2 6 -33 10 -70z"/>
</g>
</svg>
